<?xml version="1.0" encoding="UTF-8"?>
<svg version="1.1" xmlns="http://www.w3.org/2000/svg" width="90" height="90">
<path d="M0 0 C4.8404001 2.60960701 8.06650639 6.09014417 9.796875 11.28125 C10.92541683 27.04383426 10.92541683 27.04383426 5.796875 33.28125 C0.39692227 38.28608423 -4.05234248 38.63143872 -11.1875 38.5625 C-16.73027207 38.04555753 -19.78938645 35.80659949 -23.578125 31.71875 C-27.58214195 25.71272457 -26.73261761 18.21613238 -26.203125 11.28125 C-24.71611055 6.31106582 -21.47391597 3.12844398 -17.203125 0.28125 C-11.84906913 -1.50343529 -5.40672306 -1.76389547 0 0 Z " fill="#000000" transform="translate(53.203125,9.71875)"/>
<path d="M0 0 C2.26218368 1.66053908 4.3453853 3.3844478 6.328125 5.3671875 C6.515625 8.8046875 6.515625 8.8046875 6.328125 12.3671875 C3.62470585 15.07060665 2.22228455 14.62046203 -1.55859375 14.62597656 C-2.79327393 14.63228088 -4.0279541 14.63858521 -5.30004883 14.64508057 C-6.653159 14.64150088 -8.00626787 14.63739895 -9.359375 14.6328125 C-10.74178129 14.63415925 -12.12418713 14.63609986 -13.5065918 14.63861084 C-16.40515651 14.64156168 -19.30359803 14.63726586 -22.20214844 14.62792969 C-25.92148137 14.61653505 -29.64052568 14.62309475 -33.35984802 14.63507462 C-36.21482527 14.64229438 -39.06973385 14.64000478 -41.92471313 14.63481903 C-43.29627517 14.63348285 -44.66784339 14.63512916 -46.03939819 14.63977814 C-47.9546497 14.64484498 -49.86992301 14.63575581 -51.78515625 14.62597656 C-52.87610596 14.62438538 -53.96705566 14.62279419 -55.09106445 14.62115479 C-57.671875 14.3671875 -57.671875 14.3671875 -59.671875 12.3671875 C-60.171875 9.0546875 -60.171875 9.0546875 -59.671875 5.3671875 C-55.7147995 1.11333134 -50.99056636 -1.38628943 -45.671875 -3.6328125 C-44.97835937 -3.93445312 -44.28484375 -4.23609375 -43.5703125 -4.546875 C-29.63691715 -9.67015095 -12.57956294 -7.68751069 0 0 Z " fill="#000000" transform="translate(71.671875,63.6328125)"/>
</svg>
