<?xml version="1.0" encoding="UTF-8"?>
<svg version="1.1" xmlns="http://www.w3.org/2000/svg" width="512" height="512">
<path d="M0 0 C-2.33487948 3.02764591 -4.61433244 5.69260258 -7.5625 8.125 C-35.41037925 32.21521717 -51.94297516 66.1601915 -54.74609375 102.859375 C-56.8577232 138.6823878 -44.60296681 173.56468484 -21.54296875 200.9140625 C-19.4033492 203.31980389 -17.22444324 205.67282143 -15 208 C-14.195625 208.86625 -13.39125 209.7325 -12.5625 210.625 C-9.20600065 213.73590184 -5.62490468 216.52197184 -2.01171875 219.328125 C-1.01591797 220.15570313 -1.01591797 220.15570313 0 221 C0 221.33 0 221.66 0 222 C-36.29849834 222.11445442 -72.59696502 222.20255345 -108.89560667 222.25532665 C-113.1813813 222.26158015 -117.46715558 222.26805176 -121.75292969 222.2746582 C-123.0327557 222.27662553 -123.0327557 222.27662553 -124.33843678 222.2786326 C-138.15205457 222.30038677 -151.96556827 222.33980835 -165.77912432 222.38576398 C-179.95403201 222.43252833 -194.1288852 222.46029535 -208.30386686 222.47044247 C-217.05002762 222.47730169 -225.79589416 222.49896252 -234.54196435 222.53958233 C-240.54019198 222.56602045 -246.53826761 222.5739986 -252.53654927 222.56750689 C-255.99689745 222.5643056 -259.45673168 222.56919842 -262.91698837 222.59602737 C-266.67183541 222.62088996 -270.42542188 222.61492787 -274.18029785 222.60127258 C-275.26980633 222.61583679 -276.35931481 222.630401 -277.4818387 222.64540654 C-284.25957302 222.57874447 -288.76596888 221.4202503 -294 217 C-297.67720901 213.03248501 -300.24120113 209.38207705 -300.26742554 203.88168335 C-300.27595551 203.06919632 -300.28448547 202.25670929 -300.29327393 201.41960144 C-300.29236755 200.53653824 -300.29146118 199.65347504 -300.29052734 198.74365234 C-300.30060318 197.33774086 -300.30060318 197.33774086 -300.31088257 195.90342712 C-300.32990896 192.79754345 -300.33379095 189.69187589 -300.3359375 186.5859375 C-300.34236874 184.41517042 -300.34909734 182.2444042 -300.35610962 180.07363892 C-300.3680986 175.51228838 -300.37178943 170.95101362 -300.37060547 166.38964844 C-300.37040368 160.59126312 -300.39755214 154.79337572 -300.43214989 148.99510765 C-300.45459065 144.5027349 -300.45843758 140.01047798 -300.45738602 135.51805496 C-300.45972215 133.38377819 -300.46843129 131.24949723 -300.48405075 129.11527634 C-300.71920521 93.62205376 -288.2200559 66.60252386 -263.5078125 41.39453125 C-260.33769591 38.25937596 -257.0225097 35.41704596 -253.5 32.6875 C-252.60269165 31.98983521 -252.60269165 31.98983521 -251.68725586 31.27807617 C-181.90851027 -22.28697259 -81.11766492 -28.47437056 0 0 Z " fill="#000000" transform="translate(308,290)"/>
<path d="M0 0 C0.70487549 0.00054382 1.40975098 0.00108765 2.13598633 0.00164795 C13.64019402 0.042376 24.47375748 0.91770868 35.5 4.375 C36.51755371 4.68848389 36.51755371 4.68848389 37.55566406 5.00830078 C69.99059409 15.3425804 95.67810298 37.74667682 111.37451172 67.77636719 C115.32275836 75.68705641 118.20231981 83.84677703 120.5 92.375 C120.67789063 93.03338867 120.85578125 93.69177734 121.0390625 94.37011719 C128.77173245 124.76380602 123.0444242 158.81495066 107.6328125 185.875 C89.66658021 216.06756026 61.30828498 235.61923933 27.76171875 244.34765625 C-3.62027752 251.43238563 -38.27007903 245.37054591 -65.5 228.375 C-94.13305228 209.03392382 -113.93784336 181.56662377 -121.06201172 147.70361328 C-127.280657 114.36923371 -120.29144393 79.9311482 -101.2265625 51.94140625 C-82.68013972 26.77126105 -57.06989754 9.3532154 -26.5 2.375 C-25.70787109 2.19098633 -24.91574219 2.00697266 -24.09960938 1.81738281 C-16.09269723 0.15001915 -8.15539397 -0.02369919 0 0 Z " fill="#000000" transform="translate(210.5,-0.375)"/>
<path d="M0 0 C20.9782788 18.32641931 34.7902284 43.60402353 37.84375 71.37109375 C39.50968696 103.11934023 32.94256009 131.93650341 11.84375 156.37109375 C10.95816406 157.47324219 10.95816406 157.47324219 10.0546875 158.59765625 C-3.57450947 175.0106892 -22.96257459 185.4230303 -43.15625 191.37109375 C-44.26226562 191.71140625 -45.36828125 192.05171875 -46.5078125 192.40234375 C-73.31728854 199.18319483 -104.66243633 194.88759275 -128.53125 181.03515625 C-154.26851413 164.71956917 -174.42269071 139.23981108 -181.65234375 109.31787109 C-188.2071836 79.44865768 -183.07502703 49.40938675 -167.15625 23.37109375 C-164.40067535 19.17703125 -161.33861337 15.24886245 -158.15625 11.37109375 C-157.58390625 10.64664063 -157.0115625 9.9221875 -156.421875 9.17578125 C-139.05400024 -11.91378095 -110.83630887 -24.63129938 -84.1015625 -27.31640625 C-53.34201815 -29.7528058 -23.52193514 -19.90485538 0 0 Z M-83.15625 26.37109375 C-83.15625 42.21109375 -83.15625 58.05109375 -83.15625 74.37109375 C-98.66625 74.37109375 -114.17625 74.37109375 -130.15625 74.37109375 C-130.15625 81.96109375 -130.15625 89.55109375 -130.15625 97.37109375 C-114.64625 97.37109375 -99.13625 97.37109375 -83.15625 97.37109375 C-83.15625 112.88109375 -83.15625 128.39109375 -83.15625 144.37109375 C-75.89625 144.37109375 -68.63625 144.37109375 -61.15625 144.37109375 C-61.15625 128.86109375 -61.15625 113.35109375 -61.15625 97.37109375 C-45.64625 97.37109375 -30.13625 97.37109375 -14.15625 97.37109375 C-14.15625 89.78109375 -14.15625 82.19109375 -14.15625 74.37109375 C-29.66625 74.37109375 -45.17625 74.37109375 -61.15625 74.37109375 C-61.15625 58.53109375 -61.15625 42.69109375 -61.15625 26.37109375 C-68.41625 26.37109375 -75.67625 26.37109375 -83.15625 26.37109375 Z " fill="#000000" transform="translate(464.15625,315.62890625)"/>
</svg>
